<svg xmlns="http://www.w3.org/2000/svg" xmlns:xlink="http://www.w3.org/1999/xlink" width="120" zoomAndPan="magnify" viewBox="0 0 187.5 74.999997" height="50" preserveAspectRatio="xMidYMid meet" version="1.0"><defs><g/><clipPath id="40a2e577c5"><path d="M 0 0.101562 L 75 0.101562 L 75 74.898438 L 0 74.898438 Z M 0 0.101562 " clip-rule="nonzero"/></clipPath><clipPath id="b411c71167"><path d="M 37.5 0.101562 C 16.789062 0.101562 0 16.890625 0 37.601562 C 0 58.308594 16.789062 75.101562 37.5 75.101562 C 58.210938 75.101562 75 58.308594 75 37.601562 C 75 16.890625 58.210938 0.101562 37.5 0.101562 " clip-rule="nonzero"/></clipPath><clipPath id="b1aa1624a1"><path d="M 0 0.101562 L 75 0.101562 L 75 74.898438 L 0 74.898438 Z M 0 0.101562 " clip-rule="nonzero"/></clipPath></defs><g clip-path="url(#40a2e577c5)"><g clip-path="url(#b411c71167)"><path fill="#ffffff" d="M 0 0.101562 L 75 0.101562 L 75 75.101562 L 0 75.101562 Z M 0 0.101562 " fill-opacity="1" fill-rule="nonzero"/></g></g><g clip-path="url(#b1aa1624a1)"><path fill="#e65100" d="M 37.5 0.101562 C 16.789062 0.101562 0 16.890625 0 37.601562 C 0 54.289062 10.910156 68.414062 25.976562 73.277344 C 24.636719 63.269531 25.414062 51.476562 29.507812 42.148438 C 34.003906 31.898438 45.957031 26.09375 45.957031 26.09375 C 45.957031 26.09375 32.632812 28.625 25.988281 39.699219 C 22.460938 45.570312 20.507812 55.949219 20.507812 55.949219 C 20.507812 55.949219 7.945312 38.992188 23.019531 24.765625 C 33.085938 15.257812 54.132812 17.183594 60.019531 20.578125 C 52.226562 32.945312 56.832031 45.851562 48.367188 53.617188 C 39.046875 62.167969 28.738281 60.710938 28.738281 60.710938 C 28.738281 60.710938 28.496094 66.539062 31.148438 74.519531 C 33.210938 74.875 35.328125 75.101562 37.5 75.101562 C 58.210938 75.101562 75 58.308594 75 37.601562 C 75 16.890625 58.210938 0.101562 37.5 0.101562 Z M 37.5 0.101562 " fill-opacity="1" fill-rule="nonzero"/></g><g fill="#e65100" fill-opacity="1"><g transform="translate(80.29736, 26.349729)"><g><path d="M 14.640625 -12.960938 C 14.183594 -13.726562 13.558594 -14.230469 12.601562 -14.617188 C 12.40625 -14.6875 12.121094 -14.6875 11.832031 -14.664062 C 11.449219 -16.464844 9.289062 -17.617188 7.054688 -17.183594 C 5.28125 -16.824219 3.792969 -16.03125 2.902344 -15.097656 C 0.984375 -13.078125 -0.0976562 -10.609375 -0.289062 -7.871094 C -0.335938 -5.785156 -0.121094 -4.632812 0.550781 -3.167969 C 1.175781 -1.847656 2.015625 -0.960938 3.480469 -0.0234375 C 4.558594 0.625 6.167969 0.960938 7.585938 0.839844 C 9.3125 0.671875 10.96875 -0.144531 12.238281 -1.367188 C 13.488281 -2.566406 14.375 -3.9375 14.878906 -5.472656 C 15.816406 -8.398438 15.742188 -10.871094 14.640625 -12.960938 Z M 12.863281 -8.929688 C 12.3125 -5.136719 10.871094 -2.542969 8.664062 -1.367188 C 7.390625 -0.695312 6.457031 -0.601562 5.328125 -1.007812 C 4.726562 -1.175781 4.03125 -1.871094 3.433594 -2.929688 C 2.902344 -3.816406 2.664062 -4.511719 2.566406 -5.425781 C 2.472656 -6.335938 2.496094 -7.390625 2.640625 -8.449219 C 2.785156 -9.503906 3.023438 -10.871094 4.296875 -12.9375 C 5.160156 -14.375 6.335938 -15.238281 8.039062 -15.648438 C 8.734375 -15.839844 8.976562 -15.625 9.167969 -14.761719 C 9.214844 -14.519531 9.121094 -13.96875 8.976562 -13.679688 C 8.734375 -13.03125 8.808594 -12.886719 9.550781 -12.480469 L 9.574219 -12.480469 C 10.03125 -12.238281 11.015625 -12.433594 11.351562 -12.792969 C 11.519531 -13.007812 11.640625 -13.175781 11.734375 -13.367188 C 12.097656 -12.9375 13.128906 -10.800781 12.863281 -8.929688 Z M 12.863281 -8.929688 "/></g></g></g><g fill="#e65100" fill-opacity="1"><g transform="translate(101.537391, 26.349729)"><g><path d="M -0.191406 0.335938 C 0.625 0.457031 1.511719 0 1.558594 -0.550781 C 1.679688 -1.726562 1.777344 -2.398438 1.894531 -2.855469 C 2.113281 -3.863281 2.183594 -4.703125 2.519531 -5.425781 C 3.40625 -7.609375 4.390625 -9.359375 6.238281 -9.863281 C 6.769531 -9.960938 7.367188 -10.273438 7.390625 -10.441406 C 7.414062 -10.726562 7.199219 -10.921875 6.625 -11.183594 C 6.359375 -11.304688 5.664062 -11.351562 5.136719 -11.257812 C 4.273438 -11.0625 3.503906 -10.441406 2.929688 -9.769531 C 2.929688 -10.34375 2.640625 -10.558594 1.800781 -10.703125 C 0.3125 -10.992188 0.433594 -10.054688 0.382812 -9.816406 C 0.046875 -8.183594 -0.191406 -6.574219 -0.480469 -5.160156 L -1.199219 -0.960938 C -1.320312 -0.0703125 -1.078125 0.265625 -0.191406 0.335938 Z M -0.191406 0.335938 "/></g></g></g><g fill="#e65100" fill-opacity="1"><g transform="translate(113.321399, 26.349729)"><g><path d="M 2.496094 7.199219 C 3.886719 6.839844 4.726562 6.023438 5.136719 4.65625 C 5.496094 3.480469 5.734375 2.328125 5.953125 0.648438 C 6.023438 0.0976562 6.070312 -0.0234375 6.335938 -0.191406 C 7.753906 -1.078125 9.191406 -1.894531 10.007812 -2.953125 C 10.464844 -3.574219 10.464844 -3.671875 9.839844 -4.222656 C 9.480469 -4.609375 8.785156 -4.488281 8.160156 -3.910156 C 7.488281 -3.265625 6.910156 -2.785156 6.457031 -2.472656 C 6.527344 -3 6.625 -3.601562 6.695312 -3.886719 L 7.128906 -6.359375 C 7.222656 -6.9375 7.007812 -7.152344 6.191406 -7.441406 C 5.566406 -7.585938 4.921875 -7.34375 4.65625 -6.886719 C 4.152344 -5.976562 3.601562 -4.199219 3.289062 -3.769531 C 2.734375 -2.855469 2.398438 -2.519531 2.089844 -2.472656 L 2.015625 -2.472656 C 1.726562 -3.046875 1.65625 -3.816406 1.992188 -5.039062 C 2.375 -6.769531 2.878906 -8.519531 4.152344 -9.335938 C 4.871094 -9.792969 4.726562 -9.769531 5.136719 -9.238281 L 5.328125 -8.785156 C 5.566406 -8.425781 6.097656 -8.230469 6.601562 -8.375 C 7.273438 -8.640625 7.488281 -8.832031 7.488281 -9.121094 C 7.441406 -9.863281 6.910156 -10.441406 5.902344 -10.894531 C 5.039062 -11.304688 3.601562 -11.328125 3.023438 -10.945312 C 0.648438 -9.40625 -0.671875 -7.054688 -0.863281 -4.078125 C -0.9375 -3.046875 -0.792969 -2.398438 -0.359375 -1.703125 C -0.046875 -1.199219 1.753906 -0.71875 2.640625 -0.984375 C 3.046875 -1.105469 3.40625 -1.246094 3.71875 -1.390625 C 3.648438 -1.054688 3.601562 -0.839844 3.550781 -0.792969 C 2.425781 0.046875 0.984375 0.792969 0.289062 1.558594 C -0.574219 2.472656 -1.367188 3.289062 -1.367188 4.511719 C -1.367188 4.679688 -1.390625 4.726562 -1.367188 4.945312 C -1.320312 6.167969 0.984375 7.585938 2.496094 7.199219 Z M 1.65625 5.734375 C 1.414062 5.664062 1.105469 5.015625 1.152344 4.632812 C 1.273438 3.550781 1.703125 2.734375 2.449219 2.136719 C 2.710938 1.894531 2.953125 1.753906 3.167969 1.632812 C 2.976562 2.832031 2.855469 3.9375 2.398438 4.777344 C 2.230469 5.113281 2.136719 5.28125 2.089844 5.351562 C 1.800781 5.710938 1.824219 5.808594 1.65625 5.734375 Z M 1.65625 5.734375 "/></g></g></g><g fill="#e65100" fill-opacity="1"><g transform="translate(127.073411, 26.349729)"><g><path d="M 10.511719 -4.078125 C 10.128906 -4.535156 9.144531 -4.320312 8.710938 -3.625 C 8.230469 -2.785156 8.039062 -2.617188 7.703125 -2.207031 C 7.320312 -1.703125 6.863281 -1.367188 6.742188 -1.441406 L 6.769531 -1.441406 C 6.769531 -1.441406 6.671875 -1.800781 6.648438 -2.398438 C 6.601562 -3.625 7.175781 -5.0625 7.34375 -5.855469 C 7.464844 -6.625 7.273438 -6.863281 6.335938 -7.105469 C 5.59375 -7.296875 4.921875 -7.007812 4.679688 -6.289062 C 4.246094 -4.777344 3.792969 -3.238281 2.953125 -1.96875 C 2.617188 -1.558594 2.449219 -1.34375 2.351562 -1.222656 L 2.28125 -1.296875 C 2.015625 -1.609375 2.0625 -2.566406 1.992188 -3.3125 C 2.089844 -5.351562 2.664062 -7.199219 3.625 -8.566406 C 4.632812 -9.886719 4.585938 -9.863281 5.089844 -9.238281 C 5.207031 -9.097656 5.160156 -8.640625 5.183594 -8.425781 C 5.207031 -7.96875 5.902344 -7.558594 6.601562 -7.609375 C 7.34375 -7.679688 7.679688 -7.992188 7.679688 -8.566406 C 7.632812 -9.648438 6.527344 -10.726562 5.113281 -11.113281 C 4.34375 -11.304688 3.335938 -11.113281 2.785156 -10.703125 C 1.65625 -9.816406 0.960938 -8.953125 0.382812 -7.753906 C -0.433594 -5.855469 -0.984375 -4.296875 -0.695312 -2.304688 C -0.480469 -0.984375 0.238281 -0.144531 1.65625 0.359375 C 2.761719 0.695312 4.007812 0.335938 4.800781 -0.601562 C 5.6875 0.433594 7.824219 0.480469 8.929688 -0.601562 C 9.695312 -1.320312 10.296875 -2.136719 10.726562 -2.902344 C 10.945312 -3.40625 10.921875 -3.503906 10.511719 -4.078125 Z M 10.511719 -4.078125 "/></g></g></g><g fill="#e65100" fill-opacity="1"><g transform="translate(141.377432, 26.349729)"><g><path d="M 10.753906 -4.007812 C 9.648438 -4.222656 9.625 -3.671875 9.550781 -3.527344 C 9.359375 -2.929688 8.183594 -1.609375 7.632812 -1.34375 C 7.609375 -1.320312 7.585938 -1.320312 7.585938 -1.296875 L 7.511719 -1.535156 C 7.367188 -1.945312 7.390625 -2.617188 7.585938 -3.527344 C 7.945312 -5.304688 8.351562 -6.886719 8.6875 -8.425781 C 8.832031 -9.214844 8.617188 -9.742188 7.800781 -10.535156 C 7.273438 -10.992188 6.070312 -11.160156 5.257812 -10.847656 C 4.320312 -10.441406 3.601562 -9.742188 2.929688 -9.070312 L 2.976562 -9.480469 C 3.070312 -10.175781 2.902344 -10.464844 2.015625 -10.703125 L 1.96875 -10.703125 C 1.199219 -10.847656 0.527344 -10.488281 0.382812 -9.792969 C 0.0976562 -8.207031 -0.214844 -6.625 -0.480469 -5.207031 L -1.222656 -1.34375 C -1.296875 -0.71875 -0.960938 -0.359375 -0.121094 -0.0703125 C 0.671875 0.0976562 1.222656 -0.167969 1.441406 -0.886719 C 2.207031 -3.289062 2.878906 -5.519531 4.199219 -7.296875 C 4.945312 -8.257812 5.496094 -8.953125 6.144531 -9.265625 L 6.070312 -9.023438 C 5.976562 -8.472656 5.855469 -8.039062 5.785156 -7.703125 C 5.472656 -5.953125 4.921875 -4.414062 4.777344 -2.832031 C 4.726562 -2.113281 4.777344 -1.753906 5.015625 -1.175781 C 5.375 -0.144531 7.441406 0.695312 8.617188 0.214844 C 9.886719 -0.359375 10.800781 -1.105469 11.207031 -1.871094 C 11.519531 -2.375 11.640625 -2.710938 11.6875 -3.144531 C 11.734375 -3.574219 11.375 -3.910156 10.753906 -4.007812 Z M 10.753906 -4.007812 "/></g></g></g><g fill="#e65100" fill-opacity="1"><g transform="translate(156.497451, 26.349729)"><g><path d="M 2.6875 -12.71875 C 3.40625 -12.601562 4.585938 -13.65625 4.511719 -14.375 C 4.488281 -14.785156 4.007812 -15.167969 3.265625 -15.3125 L 3.070312 -15.3125 C 2.136719 -15.289062 1.441406 -14.59375 1.464844 -13.65625 C 1.488281 -13.128906 1.945312 -12.769531 2.6875 -12.71875 Z M 6.238281 -3.121094 C 6.191406 -3.480469 6.070312 -3.625 5.519531 -3.863281 C 5.0625 -4.007812 4.296875 -3.742188 4.128906 -3.433594 C 3.671875 -2.519531 3.167969 -1.894531 2.734375 -1.632812 C 2.351562 -1.390625 2.0625 -1.246094 1.894531 -1.222656 C 1.894531 -1.34375 1.847656 -1.585938 1.847656 -2.28125 C 1.96875 -4.175781 2.375 -6 2.808594 -7.726562 C 2.953125 -8.304688 3.046875 -8.832031 3.144531 -9.625 C 3.191406 -10.128906 2.808594 -10.488281 2.039062 -10.632812 C 1.441406 -10.753906 0.71875 -10.441406 0.601562 -10.078125 L 0.574219 -10.03125 C 0.046875 -7.464844 -0.695312 -5.089844 -0.886719 -2.617188 C -1.007812 -0.863281 -0.0234375 0.238281 1.632812 0.265625 C 2.929688 0.289062 4.585938 -0.382812 5.207031 -1.078125 C 6.046875 -1.992188 6.3125 -2.496094 6.238281 -3.121094 Z M 6.238281 -3.121094 "/></g></g></g><g fill="#e65100" fill-opacity="1"><g transform="translate(166.169464, 26.349729)"><g><path d="M 4.558594 0.457031 C 6.503906 0.0234375 8.351562 -1.367188 9.289062 -3.023438 C 9.792969 -3.695312 9.742188 -3.984375 8.976562 -4.488281 C 8.6875 -4.65625 7.847656 -4.535156 7.609375 -4.320312 C 7.222656 -3.960938 6.886719 -3.457031 6.886719 -3.457031 C 6.023438 -2.398438 4.96875 -1.535156 4.175781 -1.222656 C 3.144531 -0.792969 2.425781 -1.273438 2.089844 -2.734375 C 2.039062 -2.855469 2.015625 -3.167969 2.015625 -3.601562 C 2.015625 -5.039062 2.183594 -6.046875 2.617188 -7.03125 C 3.097656 -8.304688 3.769531 -9.265625 4.34375 -9.671875 C 4.585938 -9.863281 4.632812 -9.863281 4.679688 -9.742188 C 4.777344 -9.648438 4.800781 -9.070312 4.679688 -8.664062 C 4.609375 -8.304688 4.34375 -7.558594 4.320312 -7.535156 C 3.863281 -7.222656 3.792969 -7.152344 3.910156 -6.863281 C 4.007812 -6.601562 4.390625 -6.433594 4.894531 -6.433594 C 6.433594 -6.433594 7.390625 -7.488281 7.273438 -9.070312 C 7.222656 -9.863281 6.648438 -10.558594 5.59375 -11.113281 C 4.703125 -11.59375 3.046875 -11.0625 2.761719 -10.847656 C 2.230469 -10.441406 1.847656 -10.105469 1.464844 -9.648438 C 0.335938 -8.304688 -0.214844 -7.054688 -0.695312 -4.488281 L -0.695312 -4.441406 C -0.71875 -4.105469 -0.769531 -3.671875 -0.769531 -3.382812 C -0.769531 -0.792969 1.824219 1.03125 4.558594 0.457031 Z M 4.558594 0.457031 "/></g></g></g><g fill="#e65100" fill-opacity="1"><g transform="translate(80.29736, 59.349727)"><g><path d="M 9.167969 -15.648438 C 8.953125 -15.191406 8.832031 -14.953125 8.398438 -14.351562 C 7.847656 -13.65625 7.847656 -13.679688 8.398438 -13.273438 C 8.761719 -12.960938 10.199219 -13.152344 10.703125 -13.585938 C 11.183594 -14.039062 11.425781 -14.375 11.734375 -15.144531 C 11.976562 -15.792969 11.929688 -15.984375 11.28125 -16.585938 C 10.390625 -17.304688 8.832031 -17.542969 7.246094 -17.160156 C 5.640625 -16.726562 4.175781 -15.960938 3.097656 -15 C 0.71875 -12.839844 0.984375 -10.96875 3.769531 -9.601562 C 4.96875 -9.023438 6.023438 -8.375 7.078125 -7.488281 C 8.351562 -6.503906 8.902344 -5.398438 8.664062 -4.246094 C 8.160156 -1.96875 6.097656 -0.792969 3.359375 -1.222656 C 2.28125 -1.390625 1.558594 -2.207031 1.34375 -3.480469 C 1.246094 -3.910156 1.320312 -4.511719 1.320312 -5.015625 C 1.414062 -5.375 1.007812 -5.617188 0.433594 -5.617188 C -0.71875 -5.6875 -1.246094 -4.535156 -1.246094 -3.601562 C -1.273438 -1.96875 -0.121094 -0.550781 1.800781 0.167969 C 2.664062 0.480469 3.9375 0.648438 5.351562 0.625 C 7.703125 0.601562 9.550781 -0.671875 10.464844 -1.945312 C 11.136719 -2.878906 11.566406 -3.695312 11.617188 -4.488281 C 11.710938 -6.023438 10.824219 -7.488281 8.832031 -9.144531 C 7.753906 -9.984375 6.503906 -10.679688 5.0625 -11.351562 C 4.296875 -11.710938 3.984375 -12.574219 4.367188 -13.152344 C 5.089844 -14.089844 6 -14.761719 7.703125 -15.527344 C 7.945312 -15.625 8.664062 -15.863281 9.289062 -15.816406 C 9.238281 -15.769531 9.214844 -15.71875 9.167969 -15.648438 Z M 9.167969 -15.648438 "/></g></g></g><g fill="#e65100" fill-opacity="1"><g transform="translate(98.129386, 59.349727)"><g><path d="M 10.847656 -3.265625 C 10.390625 -3.550781 9.910156 -3.382812 9.433594 -2.832031 C 8.6875 -1.96875 7.992188 -1.296875 7.585938 -1.03125 C 7.273438 -0.792969 7.175781 -0.816406 7.078125 -1.078125 C 7.007812 -1.320312 7.054688 -1.945312 7.175781 -2.351562 C 7.511719 -4.414062 8.617188 -6.769531 9 -8.519531 C 9.214844 -9.769531 8.257812 -10.777344 6.742188 -10.945312 C 5.519531 -11.089844 4.199219 -10.585938 3.480469 -9.886719 C 3.3125 -9.742188 3.167969 -9.574219 3.023438 -9.40625 C 3.480469 -11.59375 4.078125 -13.945312 4.390625 -15.574219 C 4.609375 -16.632812 4.105469 -17.207031 3.046875 -17.207031 C 2.449219 -17.207031 1.800781 -16.847656 1.753906 -16.535156 C 1.65625 -15.886719 1.511719 -15.3125 1.441406 -14.878906 C 1.078125 -12.097656 0.167969 -8.160156 -0.40625 -5.617188 C -0.792969 -4.078125 -0.9375 -2.28125 -1.222656 -1.007812 C -1.320312 -0.457031 -1.03125 -0.191406 -0.144531 0.0703125 C 0.503906 0.335938 1.320312 0 1.488281 -0.574219 C 1.585938 -1.128906 1.632812 -1.65625 1.703125 -1.871094 C 2.328125 -4.390625 3.023438 -5.617188 4.34375 -7.753906 C 4.800781 -8.472656 5.304688 -8.976562 5.953125 -9.359375 C 6.457031 -9.671875 6.503906 -9.601562 6.191406 -8.640625 C 5.617188 -6.550781 4.753906 -3.984375 4.390625 -2.28125 L 4.34375 -1.535156 C 4.320312 -0.238281 6.238281 0.9375 7.921875 0.625 C 9.238281 0.382812 11.375 -1.414062 11.449219 -2.28125 C 11.496094 -2.878906 11.472656 -2.929688 10.847656 -3.265625 Z M 10.847656 -3.265625 "/></g></g></g><g fill="#e65100" fill-opacity="1"><g transform="translate(113.033407, 59.349727)"><g><path d="M 6.863281 -7.777344 C 6.167969 -8.039062 5.304688 -7.703125 5.398438 -7.152344 C 5.425781 -6.863281 5.519531 -6.40625 5.449219 -6.238281 C 5.039062 -4.414062 4.632812 -2.734375 3.671875 -1.65625 C 3.023438 -0.960938 3.070312 -1.007812 2.878906 -1.078125 C 2.664062 -1.128906 2.328125 -1.847656 2.183594 -2.59375 C 1.945312 -3.625 1.96875 -4.441406 2.28125 -5.734375 C 2.710938 -7.609375 3.097656 -9.097656 4.535156 -9.550781 C 4.585938 -9.574219 4.632812 -9.574219 4.65625 -9.601562 C 4.679688 -9.550781 4.703125 -9.480469 4.753906 -9.433594 C 4.800781 -9.359375 4.777344 -9.191406 4.871094 -8.953125 C 4.992188 -8.640625 5.59375 -8.28125 6.191406 -8.257812 L 6.238281 -8.257812 C 6.816406 -8.257812 7.367188 -8.566406 7.441406 -8.902344 C 7.726562 -9.9375 6.433594 -10.945312 4.800781 -10.992188 C 3.382812 -11.0625 2.089844 -10.441406 1.128906 -9.265625 C 0.046875 -7.945312 -0.335938 -6.984375 -0.671875 -4.847656 C -1.078125 -1.945312 -0.265625 -0.457031 2.207031 0.3125 C 3.265625 0.601562 4.921875 0.3125 5.496094 -0.238281 C 7.246094 -1.921875 7.992188 -3.742188 8.0625 -6.527344 C 8.0625 -7.078125 7.679688 -7.464844 6.863281 -7.777344 Z M 6.863281 -7.777344 "/></g></g></g><g fill="#e65100" fill-opacity="1"><g transform="translate(127.289429, 59.349727)"><g><path d="M 8.039062 -8.398438 C 7.992188 -9.480469 7.535156 -10.105469 6.359375 -10.65625 C 5.542969 -11.015625 4.296875 -10.824219 3.457031 -10.152344 C 3.289062 -10.007812 3.144531 -9.863281 3 -9.71875 C 3.023438 -9.792969 3.023438 -9.886719 3.023438 -9.984375 C 3.046875 -10.535156 2.664062 -10.894531 1.847656 -11.015625 C 1.152344 -11.136719 0.625 -10.871094 0.480469 -10.273438 C -0.191406 -6.816406 -0.816406 -3.457031 -1.464844 -0.238281 C -1.800781 1.511719 -1.992188 3.214844 -2.207031 4.894531 C -2.257812 5.472656 -1.824219 5.878906 -0.960938 6.023438 C -0.265625 6.144531 0.457031 5.808594 0.527344 5.351562 L 1.464844 -0.550781 L 1.558594 -0.480469 C 3.023438 0.480469 5.328125 0.167969 6.097656 -1.078125 C 6.359375 -1.535156 6.625 -1.871094 6.695312 -1.96875 C 7.777344 -4.03125 8.207031 -6.046875 8.039062 -8.398438 Z M 3.886719 -2.0625 C 3.3125 -1.320312 3.144531 -1.320312 2.519531 -1.726562 C 2.351562 -1.894531 2.0625 -2.089844 1.726562 -2.136719 C 1.753906 -2.375 1.800781 -2.542969 1.824219 -2.734375 C 2.015625 -4.273438 2.472656 -5.59375 3.046875 -6.457031 C 4.007812 -7.679688 4.753906 -8.519531 5.375 -9.046875 C 5.472656 -8.734375 5.425781 -8.136719 5.449219 -7.824219 C 5.398438 -5.710938 4.726562 -3.265625 3.886719 -2.0625 Z M 3.886719 -2.0625 "/></g></g></g></svg>