<svg xmlns="http://www.w3.org/2000/svg" xmlns:xlink="http://www.w3.org/1999/xlink" width="100" zoomAndPan="magnify" viewBox="0 0 75 74.999997" height="100" preserveAspectRatio="xMidYMid meet" version="1.0"><defs><clipPath id="efddffe203"><path d="M 37.5 0 C 16.789062 0 0 16.789062 0 37.5 C 0 58.210938 16.789062 75 37.5 75 C 58.210938 75 75 58.210938 75 37.5 C 75 16.789062 58.210938 0 37.5 0 " clip-rule="nonzero"/></clipPath></defs><g clip-path="url(#efddffe203)"><rect x="-7.5" width="90" fill="#ffffff" y="-7.5" height="89.999996" fill-opacity="1"/></g><path fill="#e65100" d="M 37.5 0 C 16.789062 0 0 16.789062 0 37.5 C 0 54.1875 10.910156 68.316406 25.976562 73.179688 C 24.636719 63.167969 25.414062 51.375 29.507812 42.046875 C 34.003906 31.800781 45.957031 25.992188 45.957031 25.992188 C 45.957031 25.992188 32.632812 28.523438 25.988281 39.601562 C 22.460938 45.472656 20.507812 55.851562 20.507812 55.851562 C 20.507812 55.851562 7.945312 38.890625 23.019531 24.664062 C 33.085938 15.160156 54.132812 17.085938 60.019531 20.476562 C 52.226562 32.84375 56.832031 45.75 48.367188 53.519531 C 39.046875 62.070312 28.738281 60.613281 28.738281 60.613281 C 28.738281 60.613281 28.496094 66.4375 31.148438 74.417969 C 33.210938 74.773438 35.328125 75 37.5 75 C 58.210938 75 75 58.210938 75 37.5 C 75 16.789062 58.210938 0 37.5 0 Z M 37.5 0 " fill-opacity="1" fill-rule="nonzero"/></svg>